<svg xmlns="http://www.w3.org/2000/svg" viewBox="0 0 1200 760" role="img" aria-labelledby="title desc">
  <title id="title">Auction evidence summary</title>
  <desc id="desc">A generalized evidence card used instead of a third-party marketplace screenshot.</desc>
  <rect width="1200" height="760" fill="#08090b"/>
  <rect x="35" y="35" width="1130" height="690" rx="28" fill="#0f1115" stroke="#574728" stroke-width="3"/>
  <path d="M90 112h1020" stroke="#c9a35c" stroke-width="5"/>
  <g fill="none" stroke="#4e535c" stroke-width="3">
    <rect x="92" y="170" width="430" height="410" rx="20"/>
    <rect x="560" y="170" width="548" height="84" rx="14"/>
    <rect x="560" y="280" width="548" height="84" rx="14"/>
    <rect x="560" y="390" width="548" height="84" rx="14"/>
    <rect x="560" y="500" width="548" height="84" rx="14"/>
  </g>
  <g fill="#c9a35c">
    <circle cx="208" cy="292" r="54"/>
    <circle cx="406" cy="458" r="34" opacity=".55"/>
    <rect x="132" y="510" width="310" height="8" rx="4"/>
  </g>
  <g fill="#858b95">
    <rect x="590" y="202" width="282" height="12" rx="6"/>
    <rect x="590" y="312" width="420" height="12" rx="6"/>
    <rect x="590" y="422" width="342" height="12" rx="6"/>
    <rect x="590" y="532" width="460" height="12" rx="6"/>
  </g>
  <text x="90" y="670" fill="#d8c08b" font-size="32" font-family="sans-serif" letter-spacing="7">PUBLIC AUCTION DATA / GENERALIZED VIEW</text>
</svg>
